<svg id="svg" xmlns="http://www.w3.org/2000/svg" xmlns:xlink="http://www.w3.org/1999/xlink" width="400" height="162" viewBox="0, 0, 400,162"><g id="svgg"><path id="path0" d="M103.531 3.833 C 103.431 5.929,103.648 6.667,104.364 6.667 C 104.897 6.667,105.333 6.238,105.333 5.714 C 105.333 4.064,107.342 2.667,109.714 2.667 L 112.000 2.667 112.000 12.667 L 112.000 22.667 110.000 22.667 C 108.667 22.667,108.000 23.000,108.000 23.667 C 108.000 24.489,109.185 24.667,114.667 24.667 C 120.148 24.667,121.333 24.489,121.333 23.667 C 121.333 23.004,120.670 22.667,119.367 22.667 L 117.400 22.667 117.200 12.666 L 117.000 2.665 119.452 2.666 C 121.970 2.667,124.000 4.027,124.000 5.714 C 124.000 6.238,124.412 6.667,124.916 6.667 C 125.562 6.667,125.808 5.832,125.749 3.833 L 125.667 1.000 114.667 1.000 L 103.667 1.000 103.531 3.833 M168.167 1.165 C 162.597 1.285,158.667 1.638,158.667 2.018 C 158.667 2.375,159.230 2.667,159.918 2.667 C 162.358 2.667,162.714 4.142,162.520 13.426 L 162.333 22.333 160.500 22.544 C 159.451 22.665,158.667 23.164,158.667 23.711 C 158.667 24.498,160.428 24.667,168.667 24.667 L 178.667 24.667 178.667 21.738 C 178.667 19.706,178.350 18.688,177.632 18.412 C 177.055 18.191,176.773 18.299,176.993 18.655 C 178.262 20.709,175.177 22.727,171.071 22.529 L 167.000 22.333 166.802 17.799 L 166.604 13.265 170.469 13.466 C 173.897 13.644,174.357 13.836,174.546 15.167 C 175.040 18.640,176.667 16.722,176.667 12.667 C 176.667 8.611,175.040 6.693,174.546 10.167 C 174.358 11.495,173.896 11.689,170.500 11.867 L 166.667 12.067 166.667 7.367 L 166.667 2.667 169.852 2.667 C 173.197 2.667,176.000 4.052,176.000 5.704 C 176.000 8.087,177.224 6.352,177.438 3.667 C 177.569 2.017,177.674 0.733,177.671 0.814 C 177.669 0.894,173.392 1.053,168.167 1.165 M128.000 1.917 C 128.000 2.237,128.908 2.682,130.018 2.904 L 132.037 3.307 131.852 12.820 L 131.667 22.333 129.833 22.544 C 124.817 23.121,128.093 24.667,134.333 24.667 C 139.519 24.667,140.667 24.485,140.667 23.667 C 140.667 23.056,140.045 22.667,139.071 22.667 C 137.147 22.667,136.667 21.591,136.667 17.279 L 136.667 14.000 142.365 14.000 L 148.064 14.000 147.865 18.167 C 147.675 22.160,147.590 22.342,145.833 22.544 C 140.817 23.121,144.093 24.667,150.333 24.667 C 155.519 24.667,156.667 24.485,156.667 23.667 C 156.667 23.056,156.045 22.667,155.071 22.667 C 152.882 22.667,152.667 21.748,152.667 12.412 C 152.667 4.007,153.052 2.667,155.467 2.667 C 156.127 2.667,156.667 2.367,156.667 2.000 C 156.667 1.602,154.111 1.333,150.333 1.333 C 144.140 1.333,142.013 2.103,146.000 2.900 C 147.977 3.295,148.000 3.350,148.000 7.650 L 148.000 12.000 142.333 12.000 L 136.667 12.000 136.667 8.623 C 136.667 4.629,137.553 2.667,139.357 2.667 C 140.077 2.667,140.667 2.367,140.667 2.000 C 140.667 1.602,138.111 1.333,134.333 1.333 C 130.850 1.333,128.000 1.596,128.000 1.917 M81.600 39.529 C 81.600 40.737,80.940 43.437,80.133 45.529 C 79.327 47.621,78.037 51.058,77.268 53.167 C 76.499 55.275,75.628 57.600,75.332 58.333 C 75.036 59.067,73.865 62.142,72.730 65.167 C 65.647 84.045,65.672 84.000,62.230 84.000 C 60.444 84.000,60.000 84.266,60.000 85.333 C 60.000 86.603,60.444 86.667,69.333 86.667 C 78.222 86.667,78.667 86.603,78.667 85.333 C 78.667 84.211,78.219 83.998,75.833 83.990 C 70.468 83.970,70.404 83.597,74.034 73.482 L 75.536 69.297 84.550 69.482 L 93.564 69.667 95.482 74.333 C 96.537 76.900,97.460 80.050,97.533 81.333 L 97.667 83.667 94.167 83.868 C 91.211 84.038,90.667 84.272,90.667 85.368 C 90.667 86.601,91.207 86.667,101.333 86.667 C 111.556 86.667,112.000 86.611,112.000 85.333 C 112.000 84.315,111.556 84.000,110.116 84.000 C 106.770 84.000,106.204 82.981,99.270 64.500 C 96.744 57.768,96.363 56.778,95.486 54.667 C 95.105 53.750,93.842 50.450,92.678 47.333 C 91.515 44.217,90.286 41.146,89.948 40.509 C 89.610 39.872,89.333 38.897,89.333 38.342 C 89.333 37.557,88.475 37.333,85.467 37.333 L 81.600 37.333 81.600 39.529 M201.264 38.898 C 179.846 47.124,177.891 75.035,198.068 84.507 C 216.157 92.999,235.727 83.956,239.275 65.466 C 242.882 46.663,220.954 31.336,201.264 38.898 M326.667 39.244 C 326.667 40.898,326.058 42.797,323.327 49.667 C 323.035 50.400,322.138 52.800,321.333 55.000 C 320.529 57.200,319.629 59.600,319.333 60.333 C 319.038 61.067,318.197 63.317,317.465 65.333 C 311.551 81.611,310.249 84.000,307.288 84.000 C 305.778 84.000,305.333 84.303,305.333 85.333 C 305.333 86.601,305.778 86.667,314.333 86.667 C 322.889 86.667,323.333 86.601,323.333 85.333 C 323.333 84.203,322.889 84.000,320.415 84.000 C 316.224 84.000,315.414 82.787,316.930 78.782 C 317.578 77.068,318.580 74.242,319.156 72.500 L 320.203 69.333 329.271 69.333 L 338.340 69.333 339.889 73.500 C 340.740 75.792,341.740 78.297,342.111 79.067 C 343.572 82.100,342.623 83.648,339.167 83.870 C 336.544 84.038,336.000 84.296,336.000 85.370 C 336.000 86.599,336.541 86.667,346.333 86.667 C 356.222 86.667,356.667 86.609,356.667 85.333 C 356.667 84.333,356.222 84.000,354.886 84.000 C 351.523 84.000,351.453 83.874,344.004 64.333 C 342.466 60.300,340.965 56.400,340.668 55.667 C 340.370 54.933,339.170 51.783,338.000 48.667 C 336.830 45.550,335.620 42.400,335.312 41.667 C 335.003 40.933,334.561 39.658,334.330 38.833 C 333.600 36.225,326.667 36.597,326.667 39.244 M0.428 39.006 C 0.640 39.559,1.606 40.185,2.574 40.397 C 3.541 40.610,5.083 41.007,6.000 41.280 L 7.667 41.777 7.844 60.902 C 8.052 83.474,7.942 84.000,2.983 84.000 C 0.444 84.000,0.000 84.199,0.000 85.333 C 0.000 86.609,0.444 86.667,10.333 86.667 C 20.222 86.667,20.667 86.609,20.667 85.333 C 20.667 84.183,20.222 84.000,17.437 84.000 C 11.926 84.000,11.999 84.270,12.006 63.948 L 12.012 46.333 14.339 48.789 C 15.619 50.139,16.667 51.365,16.667 51.512 C 16.667 51.659,18.846 54.004,21.509 56.723 C 24.172 59.442,28.297 63.774,30.676 66.349 C 44.673 81.507,49.896 86.667,51.241 86.667 L 52.667 86.667 52.667 64.714 C 52.667 46.420,52.828 42.601,53.634 41.795 C 54.727 40.702,59.014 39.724,60.011 40.340 C 60.372 40.563,60.667 40.128,60.667 39.373 C 60.667 38.046,60.321 38.000,50.333 38.000 C 41.969 38.000,40.000 38.176,40.000 38.924 C 40.000 39.504,41.084 40.011,42.910 40.285 C 48.510 41.125,48.309 40.462,48.524 58.779 L 48.715 75.000 43.858 69.968 C 41.186 67.201,37.050 62.845,34.667 60.289 C 32.283 57.733,26.590 51.672,22.015 46.821 L 13.696 38.000 6.869 38.000 C 1.057 38.000,0.099 38.150,0.428 39.006 M106.403 41.833 C 106.157 43.942,105.777 46.792,105.559 48.167 C 105.206 50.396,105.316 50.667,106.581 50.667 C 107.544 50.667,108.000 50.248,108.000 49.365 C 108.000 47.768,109.255 44.736,110.566 43.167 C 111.384 42.187,112.702 42.000,118.807 42.000 L 126.073 42.000 125.870 61.899 C 125.638 84.567,125.774 84.000,120.585 84.000 C 117.778 84.000,117.333 84.182,117.333 85.333 C 117.333 86.619,117.778 86.667,129.667 86.667 C 141.556 86.667,142.000 86.619,142.000 85.333 C 142.000 84.168,141.556 84.000,138.467 84.000 C 133.109 84.000,133.333 84.953,133.333 62.200 L 133.333 42.000 140.167 42.021 C 148.402 42.047,150.667 43.559,150.667 49.031 C 150.667 50.222,151.029 50.667,152.000 50.667 C 153.573 50.667,153.624 50.008,152.586 43.027 L 151.838 38.000 129.344 38.000 L 106.850 38.000 106.403 41.833 M157.333 38.947 C 157.333 39.477,158.288 40.097,159.500 40.355 C 164.128 41.338,164.000 40.704,164.000 62.637 C 164.000 84.583,164.122 84.000,159.533 84.000 C 157.111 84.000,156.667 84.207,156.667 85.333 C 156.667 86.613,157.111 86.667,167.667 86.667 C 178.222 86.667,178.667 86.613,178.667 85.333 C 178.667 84.199,178.222 84.000,175.690 84.000 C 173.430 84.000,172.548 83.690,172.023 82.710 C 171.284 81.328,171.040 45.496,171.752 42.838 C 172.164 41.300,176.664 39.508,178.015 40.343 C 178.374 40.564,178.667 40.128,178.667 39.373 C 178.667 38.044,178.324 38.000,168.000 38.000 C 159.228 38.000,157.333 38.168,157.333 38.947 M245.333 38.904 C 245.333 39.430,246.793 40.197,248.833 40.743 L 252.333 41.678 252.496 61.006 C 252.682 83.252,252.626 83.546,248.151 83.872 C 245.876 84.037,245.333 84.326,245.333 85.372 C 245.333 86.596,245.876 86.667,255.333 86.667 C 264.799 86.667,265.333 86.597,265.333 85.368 C 265.333 84.273,264.789 84.038,261.850 83.868 C 256.703 83.570,256.686 83.502,256.690 63.333 L 256.693 46.333 264.847 54.942 C 269.331 59.677,272.956 63.622,272.902 63.708 C 272.848 63.793,275.548 66.671,278.902 70.102 C 284.526 75.856,291.122 83.005,293.193 85.593 C 293.666 86.183,294.791 86.667,295.693 86.667 L 297.333 86.667 297.333 64.714 C 297.333 40.039,297.120 41.080,302.341 40.297 C 304.232 40.014,305.333 39.508,305.333 38.924 C 305.333 38.177,303.414 38.000,295.333 38.000 C 287.245 38.000,285.333 38.177,285.333 38.926 C 285.333 39.470,286.364 40.040,287.833 40.308 C 293.549 41.353,293.335 40.630,293.318 58.849 L 293.302 75.000 290.199 71.667 C 288.493 69.833,282.575 63.577,277.048 57.763 C 271.522 51.949,267.075 46.924,267.167 46.596 C 267.258 46.268,266.833 46.000,266.222 46.000 C 265.611 46.000,265.275 45.836,265.475 45.637 C 265.674 45.437,264.122 43.637,262.025 41.637 L 258.213 38.000 251.773 38.000 C 246.799 38.000,245.333 38.206,245.333 38.904 M358.670 38.833 C 358.672 39.292,360.089 40.117,361.820 40.667 C 365.942 41.977,365.867 41.568,365.867 62.667 C 365.867 84.026,365.948 83.602,361.807 83.870 C 359.210 84.038,358.667 84.298,358.667 85.370 C 358.667 86.623,359.285 86.667,377.171 86.667 L 395.675 86.667 396.415 84.833 C 400.515 74.685,400.520 74.666,398.833 74.668 C 398.175 74.669,396.835 75.986,395.758 77.689 C 392.942 82.148,391.476 82.667,381.700 82.667 L 373.333 82.667 373.333 62.026 L 373.333 41.385 376.070 40.648 C 377.575 40.243,379.225 40.072,379.737 40.268 C 380.338 40.499,380.667 40.161,380.667 39.312 C 380.667 38.060,380.164 38.000,369.667 38.000 C 361.309 38.000,358.668 38.200,358.670 38.833 M214.923 40.741 C 238.709 47.167,236.941 84.000,212.847 84.000 C 207.813 84.000,199.333 81.036,199.333 79.277 C 199.333 78.917,198.469 77.776,197.412 76.743 C 183.529 63.173,196.819 35.850,214.923 40.741 M85.333 47.715 C 85.333 48.248,85.598 49.206,85.922 49.842 C 86.658 51.289,87.401 53.098,89.680 59.000 C 90.671 61.567,91.631 64.042,91.812 64.500 C 92.065 65.136,90.393 65.333,84.738 65.333 C 77.247 65.333,76.720 65.139,77.947 62.824 C 78.284 62.188,79.159 60.017,79.892 58.000 C 83.477 48.128,84.328 46.124,84.811 46.422 C 85.098 46.600,85.333 47.182,85.333 47.715 M330.330 48.167 C 330.561 48.992,331.004 50.267,331.314 51.000 C 332.626 54.105,335.534 61.807,336.033 63.500 L 336.574 65.333 329.333 65.333 L 322.093 65.333 322.634 63.500 C 322.931 62.492,323.934 59.717,324.863 57.333 C 325.791 54.950,327.068 51.575,327.700 49.833 C 328.963 46.348,329.692 45.887,330.330 48.167 M26.000 102.262 C 21.017 103.047,17.314 104.438,13.833 106.830 C 12.825 107.524,12.000 107.903,12.000 107.673 C 12.000 106.382,5.112 115.419,3.454 118.887 C -4.871 136.292,3.953 156.092,21.953 160.397 C 30.233 162.378,41.741 160.876,52.167 156.452 L 54.000 155.675 54.000 148.244 C 54.000 139.804,54.808 137.883,58.420 137.744 C 60.114 137.678,60.372 137.440,60.130 136.167 C 59.706 133.939,35.333 133.775,35.333 136.000 C 35.333 137.139,35.778 137.333,38.377 137.333 C 44.572 137.333,45.310 138.406,45.323 147.419 L 45.333 154.505 43.500 155.195 C 38.912 156.923,36.836 157.333,32.686 157.333 C 28.166 157.333,22.000 155.736,22.000 154.565 C 22.000 154.211,21.731 154.088,21.402 154.291 C 20.283 154.982,14.295 148.827,12.480 145.121 C 7.608 135.170,9.056 120.644,15.711 112.736 C 25.478 101.128,45.964 103.374,50.152 116.510 C 52.204 122.948,53.333 121.127,53.333 111.382 C 53.333 102.626,52.900 101.181,51.036 103.730 C 50.325 104.703,49.893 104.703,45.963 103.734 C 41.855 102.721,33.070 101.297,31.667 101.417 C 31.300 101.448,28.750 101.828,26.000 102.262 M87.762 103.674 C 88.092 104.534,87.255 107.236,84.667 113.667 C 84.371 114.400,83.531 116.650,82.798 118.667 C 82.065 120.683,80.536 124.808,79.400 127.833 C 78.263 130.858,76.433 135.733,75.333 138.667 C 68.892 155.845,67.981 157.333,63.910 157.333 C 62.444 157.333,62.000 157.644,62.000 158.667 C 62.000 159.944,62.444 160.000,72.667 160.000 C 82.889 160.000,83.333 159.944,83.333 158.667 C 83.333 157.536,82.889 157.333,80.407 157.333 C 78.534 157.333,76.923 156.881,75.930 156.077 L 74.379 154.821 76.583 148.911 C 77.796 145.660,79.134 142.175,79.557 141.167 L 80.325 139.333 90.844 139.333 L 101.362 139.333 102.097 141.167 C 102.502 142.175,103.135 143.750,103.506 144.667 C 103.876 145.583,104.401 146.933,104.673 147.667 C 104.945 148.400,105.505 149.839,105.917 150.865 C 107.731 155.376,106.357 157.333,101.377 157.333 C 99.111 157.333,98.667 157.552,98.667 158.667 C 98.667 159.951,99.111 160.000,110.667 160.000 C 122.222 160.000,122.667 159.951,122.667 158.667 C 122.667 157.767,122.222 157.333,121.300 157.333 C 116.989 157.333,116.398 156.389,109.936 139.167 C 108.802 136.142,107.561 132.917,107.181 132.000 C 106.298 129.875,105.897 128.832,103.463 122.333 C 102.365 119.400,100.203 113.775,98.660 109.833 L 95.853 102.667 91.614 102.667 C 88.106 102.667,87.442 102.840,87.762 103.674 M128.000 104.000 C 128.000 105.013,128.444 105.333,129.852 105.333 C 130.870 105.333,132.331 105.773,133.097 106.310 C 133.864 106.847,134.673 107.105,134.894 106.884 C 136.305 105.473,136.703 111.803,136.525 132.830 C 136.308 158.434,136.562 157.333,130.873 157.333 C 128.444 157.333,128.000 157.540,128.000 158.667 C 128.000 159.972,128.444 160.000,149.256 160.000 L 170.511 160.000 170.846 158.500 C 171.031 157.675,172.099 154.525,173.220 151.500 L 175.259 146.000 173.710 146.000 C 172.648 146.000,171.922 146.578,171.400 147.839 C 170.310 150.471,166.818 154.005,164.247 155.079 C 162.000 156.018,148.505 156.408,146.388 155.595 C 145.453 155.237,145.333 152.464,145.333 131.228 L 145.333 107.265 147.645 106.299 C 148.917 105.768,151.017 105.333,152.312 105.333 C 154.222 105.333,154.667 105.082,154.667 104.000 C 154.667 102.711,154.222 102.667,141.333 102.667 C 128.444 102.667,128.000 102.711,128.000 104.000 M177.333 104.000 C 177.333 104.982,177.778 105.333,179.021 105.333 C 186.037 105.333,186.124 105.694,185.868 133.554 C 185.640 158.339,185.880 157.333,180.206 157.333 C 177.778 157.333,177.333 157.540,177.333 158.667 C 177.333 159.972,177.778 160.000,198.667 160.000 C 216.260 160.000,220.000 159.840,220.000 159.089 C 220.000 158.308,220.932 155.682,223.344 149.667 C 224.681 146.335,224.662 146.000,223.142 146.000 C 222.165 146.000,221.382 146.626,220.846 147.835 C 219.555 150.753,215.425 154.578,212.771 155.315 C 210.134 156.048,197.444 156.256,195.721 155.595 C 194.787 155.237,194.667 152.464,194.667 131.228 L 194.667 107.265 197.119 106.241 C 198.468 105.677,200.662 105.320,201.996 105.447 C 204.203 105.658,204.394 105.543,204.132 104.173 C 203.705 101.937,177.333 101.768,177.333 104.000 M227.333 104.000 C 227.333 105.040,227.778 105.333,229.355 105.333 C 236.528 105.333,236.650 105.772,236.659 131.750 C 236.669 157.350,236.674 157.333,228.700 157.333 C 225.778 157.333,225.333 157.509,225.333 158.667 C 225.333 159.976,225.778 160.000,249.636 160.000 L 273.940 160.000 274.259 157.833 C 275.628 148.539,275.717 145.333,274.606 145.333 C 273.962 145.333,273.157 146.244,272.691 147.500 C 269.901 155.022,268.792 155.618,257.120 155.873 C 244.260 156.153,245.058 156.971,244.779 143.221 L 244.557 132.333 252.445 132.453 C 263.514 132.620,263.655 132.664,264.729 136.300 C 266.674 142.888,268.000 140.469,268.000 130.333 C 268.000 121.778,267.934 121.333,266.667 121.333 C 265.767 121.333,265.333 121.778,265.333 122.700 C 265.333 123.451,264.876 124.951,264.316 126.033 L 263.299 128.000 253.983 128.000 L 244.667 128.000 244.667 117.667 L 244.667 107.333 254.710 107.333 C 266.794 107.333,269.333 108.621,269.333 114.748 C 269.333 115.556,269.807 116.000,270.667 116.000 C 272.103 116.000,272.526 110.940,271.572 105.167 L 271.159 102.667 249.246 102.667 C 227.778 102.667,227.333 102.694,227.333 104.000 M283.871 104.167 C 283.612 105.529,283.845 105.668,286.408 105.683 C 292.167 105.716,292.000 104.950,292.000 131.388 L 292.000 154.570 290.243 155.952 C 289.257 156.728,287.504 157.333,286.243 157.333 C 284.444 157.333,284.000 157.597,284.000 158.667 C 284.000 159.954,284.444 160.000,297.000 160.000 C 309.556 160.000,310.000 159.954,310.000 158.667 C 310.000 157.529,309.556 157.333,306.970 157.333 C 301.437 157.333,300.667 155.831,300.667 145.030 L 300.667 136.000 306.013 136.000 L 311.358 136.000 320.596 145.049 C 333.861 158.042,337.640 160.000,349.456 160.000 C 354.353 160.000,354.029 157.873,348.947 156.654 C 343.478 155.342,339.828 152.696,329.417 142.499 L 320.058 133.331 322.529 132.057 C 334.081 126.103,333.691 110.386,321.860 105.110 C 316.876 102.887,314.870 102.667,299.645 102.667 L 284.155 102.667 283.871 104.167 M337.204 104.167 C 336.960 105.451,337.213 105.673,338.959 105.713 C 343.425 105.814,346.756 109.091,353.616 120.125 C 355.055 122.440,358.280 127.567,360.783 131.520 L 365.333 138.706 365.333 146.383 C 365.333 155.675,364.379 157.333,359.030 157.333 C 356.444 157.333,356.000 157.529,356.000 158.667 C 356.000 159.954,356.444 160.000,369.000 160.000 C 381.556 160.000,382.000 159.954,382.000 158.667 C 382.000 157.634,381.556 157.333,380.031 157.333 C 374.653 157.333,373.912 156.036,373.493 145.883 C 373.199 138.732,373.288 137.937,374.586 136.113 C 375.364 135.021,376.000 133.928,376.000 133.684 C 376.000 133.440,376.900 131.932,378.000 130.333 C 379.100 128.735,380.000 127.278,380.000 127.095 C 380.000 126.913,381.425 124.418,383.167 121.549 C 384.908 118.680,386.780 115.469,387.326 114.413 C 389.518 110.171,393.060 106.989,396.597 106.082 C 399.196 105.416,400.000 104.910,400.000 103.938 C 400.000 102.740,399.383 102.667,389.333 102.667 C 379.111 102.667,378.667 102.722,378.667 104.000 C 378.667 104.961,379.111 105.333,380.259 105.333 C 385.448 105.333,385.407 108.180,380.093 116.927 C 378.575 119.426,377.333 121.610,377.333 121.781 C 377.333 121.953,376.497 123.347,375.476 124.880 C 374.454 126.413,373.041 128.781,372.336 130.144 L 371.055 132.621 368.403 128.477 C 366.944 126.198,363.541 120.923,360.839 116.756 C 355.137 107.958,354.938 106.643,359.167 105.705 C 361.224 105.249,362.000 104.747,362.000 103.872 C 362.000 101.759,337.606 102.049,337.204 104.167 M312.350 106.367 C 319.293 108.385,321.573 111.611,321.536 119.361 C 321.488 129.149,316.447 133.333,304.705 133.333 L 300.667 133.333 300.667 119.333 L 300.667 105.333 304.731 105.333 C 306.966 105.333,310.395 105.798,312.350 106.367 M92.295 115.167 C 92.923 116.908,93.754 119.083,94.141 120.000 C 95.060 122.174,95.569 123.508,97.327 128.333 C 98.128 130.533,99.051 133.008,99.378 133.833 L 99.971 135.333 90.647 135.333 C 81.975 135.333,81.365 135.252,81.941 134.167 C 82.282 133.525,83.213 131.200,84.012 129.000 C 84.810 126.800,85.702 124.400,85.993 123.667 C 88.502 117.357,89.333 115.045,89.333 114.378 C 89.333 113.752,90.593 112.000,91.043 112.000 C 91.103 112.000,91.666 113.425,92.295 115.167 " stroke="none" fill="#000000" fill-rule="evenodd"></path></g></svg>