<svg id="svg" xmlns="http://www.w3.org/2000/svg" xmlns:xlink="http://www.w3.org/1999/xlink" width="400" height="229.6875" viewBox="0, 0, 400,229.6875"><g id="svgg"><path id="path0" d="M277.522 30.666 C 271.819 47.530,267.160 61.916,267.170 62.634 C 267.180 63.352,279.316 97.373,294.141 138.236 C 309.375 180.229,321.094 213.668,321.094 215.145 C 321.094 220.386,318.500 222.116,308.203 223.744 C 303.121 224.548,302.734 224.748,302.734 226.563 L 302.734 228.516 351.172 228.516 L 399.609 228.516 399.609 226.565 C 399.609 224.716,399.263 224.562,392.969 223.616 C 381.796 221.936,375.857 218.029,371.578 209.541 C 370.110 206.629,344.788 141.223,290.834 0.977 C 289.297 -3.018,287.732 0.473,277.522 30.666 M0.285 4.290 C -0.680 6.806,0.583 7.566,6.571 8.073 C 13.968 8.698,16.896 9.900,20.206 13.670 C 23.904 17.881,22.241 13.148,59.788 126.367 C 85.789 204.770,94.345 229.686,95.268 229.683 C 96.155 229.679,107.999 200.722,138.967 122.847 C 187.075 1.871,183.483 9.376,193.823 8.199 C 201.132 7.367,201.689 7.150,201.418 5.246 L 201.172 3.516 177.644 3.309 C 157.412 3.131,153.979 3.268,153.134 4.286 C 151.366 6.416,153.466 7.547,160.146 8.062 C 170.060 8.827,172.752 11.096,171.522 17.653 C 171.142 19.678,133.150 118.308,117.834 157.031 C 116.995 159.152,73.836 25.493,72.907 17.898 C 72.118 11.447,74.919 9.126,84.704 8.123 C 89.756 7.606,89.918 7.522,89.690 5.552 L 89.453 3.516 45.095 3.314 C 6.154 3.137,0.682 3.256,0.285 4.290 M194.531 64.450 C 164.680 71.181,156.216 99.065,174.698 129.790 C 177.594 134.604,177.775 135.156,176.458 135.156 C 174.794 135.156,161.148 141.987,156.486 145.152 C 130.887 162.536,125.741 196.317,145.695 215.979 C 163.691 233.712,202.393 234.401,228.317 217.451 C 230.409 216.083,230.490 216.089,231.620 217.703 C 237.905 226.675,259.635 231.381,272.819 226.625 C 284.201 222.519,293.813 211.142,286.606 210.308 C 284.877 210.107,284.238 210.617,282.685 213.433 C 277.401 223.014,267.870 218.544,256.716 201.254 L 252.326 194.449 254.670 191.042 C 260.481 182.595,265.430 170.499,271.622 149.609 C 273.754 142.415,276.190 140.334,283.753 139.246 C 287.480 138.709,287.891 138.458,287.891 136.708 L 287.891 134.766 267.969 134.766 L 248.047 134.766 248.047 136.719 C 248.047 138.559,248.362 138.706,253.516 139.266 C 262.953 140.291,264.997 143.127,263.353 152.913 C 261.562 163.571,253.158 185.362,249.767 188.141 C 249.077 188.706,243.557 180.614,228.975 157.665 C 213.890 133.924,209.376 126.263,210.180 125.766 C 210.762 125.407,215.639 122.714,221.018 119.783 C 245.505 106.438,252.443 88.612,238.553 74.730 C 229.296 65.478,209.978 60.966,194.531 64.450 M208.991 69.426 C 223.557 76.043,224.830 102.672,211.272 117.167 C 206.387 122.389,206.332 122.367,200.530 112.695 C 188.855 93.234,186.192 83.670,190.253 75.781 C 193.612 69.254,202.200 66.341,208.991 69.426 M204.210 175.781 L 227.249 211.328 222.804 213.594 C 187.915 231.377,149.222 187.909,168.136 152.179 C 170.733 147.272,179.370 138.432,180.481 139.544 C 180.860 139.924,191.538 156.230,204.210 175.781 " stroke="none" fill="#000000" fill-rule="evenodd"></path></g></svg>