<?xml version="1.0" encoding="utf-8"?>
<!DOCTYPE svg PUBLIC "-//W3C//DTD SVG 1.1//EN" "http://www.w3.org/Graphics/SVG/1.1/DTD/svg11.dtd">
<svg version="1.1" id="Layer_1" xmlns="http://www.w3.org/2000/svg" xmlns:xlink="http://www.w3.org/1999/xlink" x="0px" y="0px" width="200px" height="66.611px" viewBox="0 0 200 66.611" enable-background="new 0 0 200 66.611" xml:space="preserve">
<path d="M27.663,23.126h0.089l3.602-14.41h8.762l-7.427,23.305h-9.028l-3.602-13.654h-0.089l-3.247,13.654H7.694L0,8.716h9.028l3.559,14.41h0.089l3.602-14.41h7.828L27.663,23.126z"/>
<path d="M45.992,22.459c0,2.758,2.135,4.581,4.581,4.581c1.468,0,2.802-0.667,3.47-2.046h8.85c-1.601,5.782-7.472,7.694-12.898,7.694c-7.472,0-13.253-4.27-13.253-12.097c0-7.649,5.737-12.542,13.208-12.542c8.628,0,13.832,5.959,13.698,14.409H45.992z M54.398,17.745c0-2.135-1.913-4.047-4.092-4.047c-2.757,0-4.314,1.556-4.314,4.047H54.398z"/>
<path d="M60.814,32.021V0h9.25v32.021H60.814z"/>
<path d="M71.214,32.021V0h9.25v32.021H71.214z"/>
<path d="M95.677,17.611c-0.045-1.022-0.401-1.823-0.979-2.401c-0.578-0.623-1.378-0.934-2.401-0.934c-3.469,0-4.047,3.602-4.047,6.359c0,3.513,1.334,5.826,4.047,5.826c2.401,0,3.335-1.645,3.602-3.469h9.34c-0.801,7.072-6.493,9.695-12.942,9.695c-7.517,0-13.298-4.224-13.298-12.097c0-7.961,5.604-12.542,13.298-12.542c6.227,0,12.097,2.668,12.765,9.562H95.677z"/>
<path d="M116.316,8.05c8.228,0,13.298,4.848,13.298,12.097c0,8.539-5.782,12.542-13.253,12.542s-13.254-4.091-13.254-12.052C103.107,12.542,108.444,8.05,116.316,8.05z M112.358,20.146c0,4.403,1.646,6.315,4.003,6.315c2.491,0,4.002-1.912,4.002-6.315c0-3.424-1.512-6.004-3.914-5.87C113.292,14.276,112.358,17.522,112.358,20.146z"/>
<path d="M127.527,8.716h8.495v3.469c1.157-1.779,4.047-4.136,7.383-4.136c4.18,0,6.493,1.779,7.605,4.27c2.001-2.802,4.625-4.27,8.05-4.27c6.805,0,8.938,3.824,8.938,10.185v13.787h-9.25V20.146c0-3.424-0.668-4.803-3.113-4.803c-2.714,0-3.247,2.357-3.247,5.16v11.519h-9.251V20.146c0-3.424-0.667-4.803-3.113-4.803c-2.713,0-3.247,2.357-3.247,5.16v11.519h-9.251V8.716z"/>
<path d="M174.943,22.459c0,2.758,2.135,4.581,4.581,4.581c1.468,0,2.803-0.667,3.469-2.046h8.851c-1.601,5.782-7.472,7.694-12.897,7.694c-7.472,0-13.253-4.27-13.253-12.097c0-7.649,5.736-12.542,13.208-12.542c8.628,0,13.832,5.959,13.698,14.409H174.943z M183.35,17.745c0-2.135-1.913-4.047-4.092-4.047c-2.758,0-4.314,1.556-4.314,4.047H183.35z"/>
<path d="M29.328,51.533c-0.045-1.022-0.4-1.823-0.979-2.401c-0.578-0.622-1.379-0.934-2.401-0.934c-3.469,0-4.047,3.602-4.047,6.359c0,3.513,1.334,5.825,4.047,5.825c2.401,0,3.335-1.645,3.602-3.468h9.34c-0.8,7.07-6.493,9.696-12.941,9.696c-7.517,0-13.298-4.226-13.298-12.099c0-7.96,5.604-12.541,13.298-12.541c6.227,0,12.097,2.668,12.764,9.562H29.328z"/>
<path d="M49.968,41.971c8.228,0,13.298,4.848,13.298,12.096c0,8.541-5.782,12.544-13.254,12.544s-13.254-4.093-13.254-12.054C36.758,46.463,42.096,41.971,49.968,41.971z M46.01,54.067c0,4.404,1.646,6.315,4.002,6.315c2.491,0,4.002-1.911,4.002-6.315c0-3.424-1.512-6.003-3.914-5.869C46.943,48.198,46.01,51.444,46.01,54.067z"/>
<path d="M60.654,65.943V33.921h9.25v32.021H60.654z"/>
<path d="M71.054,65.943V33.921h9.25v32.021H71.054z"/>
<path d="M88.044,56.38c0,2.757,2.135,4.581,4.581,4.581c1.468,0,2.802-0.666,3.47-2.046h8.851c-1.602,5.782-7.473,7.695-12.898,7.695c-7.471,0-13.253-4.271-13.253-12.099c0-7.649,5.737-12.541,13.208-12.541c8.629,0,13.832,5.959,13.698,14.409H88.044z M96.45,51.667c0-2.135-1.913-4.047-4.092-4.047c-2.757,0-4.314,1.557-4.314,4.047H96.45z"/>
<path d="M119.492,51.533c-0.045-1.022-0.401-1.823-0.979-2.401c-0.578-0.622-1.379-0.934-2.401-0.934c-3.469,0-4.048,3.602-4.048,6.359c0,3.513,1.334,5.825,4.048,5.825c2.401,0,3.335-1.645,3.602-3.468h9.34c-0.801,7.07-6.494,9.696-12.942,9.696c-7.517,0-13.298-4.226-13.298-12.099c0-7.96,5.604-12.541,13.298-12.541c6.227,0,12.097,2.668,12.764,9.562H119.492z"/>
<path d="M142.889,65.943c-12.142,0.668-13.609-0.178-13.609-8.228v-9.74h-3.292v-5.337h3.425v-7.249h9.117v7.249h4.448v5.337h-4.448v8.45c0,2.135,0.312,2.891,2.891,2.891h1.468V65.943z"/>
<path d="M142.179,33.077h9.25v6.582h-9.25V33.077z M142.179,65.943V42.638h9.25v23.305H142.179z"/>
<path d="M163.306,41.971c8.228,0,13.298,4.848,13.298,12.096c0,8.541-5.782,12.544-13.254,12.544s-13.254-4.093-13.254-12.054C150.096,46.463,155.434,41.971,163.306,41.971z M159.347,54.067c0,4.404,1.646,6.315,4.003,6.315c2.491,0,4.003-1.911,4.003-6.315c0-3.424-1.512-6.003-3.914-5.869C160.281,48.198,159.347,51.444,159.347,54.067z"/>
<path d="M174.65,42.638h8.45v3.647c2.09-2.802,4.357-4.314,7.872-4.314c6.137,0,9.027,3.602,9.027,10.007v13.965h-9.25V53.624c0-2.313-0.623-4.359-3.247-4.359c-2.846,0-3.603,1.824-3.603,4.803v11.876h-9.25V42.638z"/>
</svg>
